<?xml version="1.0" encoding="UTF-8" standalone="no"?>
<svg xmlns="http://www.w3.org/2000/svg" xml:space="preserve" width="48" height="48" version="1.0" viewBox="0 0 1024 768">
  <g transform="translate(-42.785175 2.7301496) scale(1.01848)">
    <path fill="#ffff2c" d="m86.162004 467.74488-14.754028-55.54423v-81.40647l29.306324-87.91897 39.0751-65.12518 35.81884-42.33135 61.8689-42.331353-58.61265-42.331356-65.12516-78.150211 48.84387-13.025032 117.22531 22.793807 16.28129 9.7687739 6.51252-61.8689039 74.89394 39.075097 39.07509 58.612662 84.66273-9.768774 84.66271 19.537549L703.1221 102.8561l58.61265 68.38142 42.33135 87.91898s32.56258 201.88802 6.51252 224.68183l-26.05007 201.88804-22.7938 29.30632-334.5111 105.68577-246.80083-103.8246-6.88447-111.24845s-66.31153-115.29456-63.05528-92.50074l-24.321066-45.39979z"/>
    <path fill="#ffaf2e" d="M478.44027 532.68222s0-55.35641 97.68775-74.89395c0 0 100.94402 0 143.27537 52.10014l283.29451-74.89395s100.9439 201.88802-244.21941 250.73191c0 0-345.16339 68.38142-338.65088-65.12518"/>
    <path fill="#ffdd12" d="M237.47714 93.087327S84.433008 467.55704 292.83355 581.52609c0 0-39.07512 211.65679 468.9012 133.5066l-74.89394 55.35639-84.66273 22.7938-68.38142 29.30633-156.3004-9.76878-113.96904-29.30632-87.91898-61.8689-9.76878-104.20028-13.02503-39.0751-65.125164-104.20027-16.28129-143.27538 35.818844-113.96903M351.44619 71.377859s-79.23453-33.64692-43.41569-130.250341c0 0 79.23453 147.619212 43.41569 130.250341z"/>
    <path fill="#ffdd12" d="M315.62735 108.28427S175.60824 96.343585 123.50811-21.966046c0 0 55.35638 7.596839 192.11924 130.250316z"/>
    <path fill="#f7931c" d="M616.29071 529.42596s-79.23779-6.51252-151.95981 29.30632l-29.30632 44.50329v49.92822l5.42818 24.96572 85.74705 21.70947 174.75361-9.76878 163.89727-24.96572 117.22529-70.55336 26.05012-46.67195 8.6843-56.44073-19.53745-41.24703-13.02504-1.08432c0-.00326 78.69069 257.78495-500.92326 189.40353 0 0-46.13141-36.36264 9.22498-78.694"/>
    <path fill="#f7931c" d="M592.40931 464.30078s-120.48155 3.25626-110.71278 81.40647v16.28129l27.67819-14.65317s-30.93445-27.67818 83.03459-83.03459z"/>
    <g transform="translate(-1314.1299 -142.99142) scale(3.25626)">
      <path d="M605.166 150.5c-1.596-8.854-3.195-18.109-1.646-27.087 1.387-8.04 8.386-20.705 18.371-15.96 12.968 6.161 19.028 27.12 20.273 40.218 1.102 11.589-1.689 25.757-15.03 28.313-4.116.789-11.712 1.758-14.343-2.227-4.453-6.741-6.22-15.458-7.625-23.257"/>
      <path fill="none" stroke="#000" stroke-width="10" d="M549.167 207.833s-1.001-14.999 23.333-21.666 39.368 2.622 51.667 12.333c6.333 5 83.667-21.666 87-20.333 3.333 1.333 42.585 78.169-134 79.666-78.667.667-28-50-28-50z"/>
      <path fill="none" d="M514.5 67.542s-30-11.797-18-45.042c0 0 39 20.376 38 39.68"/>
      <path fill="#202020" d="M514.5 67.542c-3.639-4.455-5.449-7.304-9.344-11.264-2.203-2.009-7.646-9.567-7.535-18.01-.119-4.119.625-8.134 1.476-11.038.167-.733.431-1.386.607-1.97l.265-.813.117-.361.055-.168.026-.081.003-.01c1.192-.467-10.374 4.039-5.476 2.133l.004.002.016.008.032.016c.758.403 1.224.665 1.218.661-.03-.017 7.254 3.964 14.539 9.322 7.43 5.227 14.095 12.204 15.737 14.73 3.184 4.657 5.73 6.301 8.26 11.479 2.627-5.273 1.884-10.612-1.969-16.093-2.022-3.193-9.546-10.971-17.398-16.457-7.737-5.667-15.369-9.793-15.386-9.805-.006-.002-.461-.262-1.359-.743l-.047-.025-.024-.012-.006-.003c4.894-1.909-6.674 2.597-5.483 2.136l-.004.011-.031.093-.064.193-.138.415-.31.938c-.208.677-.503 1.417-.71 2.282-.992 3.375-1.936 8.189-1.796 13.393-.187 10.778 6.975 20.827 9.719 23.141 4.91 4.859 9.238 5.957 15.006 5.9z"/>
      <path d="m478.128 170.063 1.628 7.272 36.32 7.207-31.328 17.279 5.732 9.777 50.695-33.407m56.659 21.642s-1.333-4.667 6-4c7.333.667-6 4-6 4zm-24.755 7.592s-1.554-4.598 5.802-4.282c7.356.316-5.802 4.282-5.802 4.282z"/>
      <path fill="none" d="M493.167 41.089s-22.667-11.44-53.333-5.72c0 0 18 40.753 62 42.183"/>
      <path fill="#202020" d="M493.167 41.089c-4.704-4.831-8.733-7.533-16.313-9.22-4.082-.987-16.742-2.858-28.347-1.608-2.899.213-5.702.664-8.291 1.085l-.961.151-.119.019-.015.002c.615-1.183-5.426 10.293-2.864 5.445l.017.037.034.075.116.249.221.459.863 1.687c.567 1.072 1.129 2.046 1.651 2.938 2.118 3.542 3.695 5.671 3.687 5.678.009-.044 5.901 8.921 14.975 16.453 8.882 7.808 21.038 12.844 25.196 13.814 7.625 2.165 12.492 1.384 18.817-.802-6.133-2.799-9.796-4.642-16.527-6.655-3.675-.923-14.413-5.354-22.439-12.37-8.192-6.771-13.64-14.973-13.638-14.924.009-.003-1.429-1.962-3.337-5.171-.468-.804-.973-1.684-1.468-2.626l-.735-1.444-.172-.359-.078-.167-.014-.03-.006-.015c2.559-4.857-3.492 6.608-2.862 5.427l.014-.002.109-.017.886-.136c2.385-.38 4.964-.795 7.632-.984 10.677-1.138 22.335.587 26.1 1.433 7.019 1.461 11.173 1.325 17.868 1.578z"/>
      <path fill="none" stroke="#000" stroke-width="10" d="M531.834 49.668S673.167 35.73 653.833 195.167M476.5 73.262s-102.667 59.342-19.333 156.576c0 0-9.667 19.662 2 37.178 10.25 15.388 113.333 59.028 186-13.183"/>
      <path fill="#fff" d="M604.625 147.125S606 167.25 617.5 166.75s9.5-40.125-9.125-27.25c0 0-3.625 2.125-3.75 7.625z"/>
    </g>
  </g>
</svg>