<?xml version="1.0" encoding="UTF-8" standalone="no"?>
<!-- Created with Inkscape (http://www.inkscape.org/) -->

<svg
   xmlns:dc="http://purl.org/dc/elements/1.1/"
   xmlns:cc="http://creativecommons.org/ns#"
   xmlns:rdf="http://www.w3.org/1999/02/22-rdf-syntax-ns#"
   xmlns:svg="http://www.w3.org/2000/svg"
   xmlns="http://www.w3.org/2000/svg"
   version="1.1"
   width="892.91339"
   height="117.28346"
   id="svg30729">
  <defs
     id="defs30731" />
  <metadata
     id="metadata30734">
    <rdf:RDF>
      <cc:Work
         rdf:about="">
        <dc:format>image/svg+xml</dc:format>
        <dc:type
           rdf:resource="http://purl.org/dc/dcmitype/StillImage" />
        <dc:title></dc:title>
      </cc:Work>
    </rdf:RDF>
  </metadata>
  <g
     transform="translate(120.81301,-479.08056)"
     id="layer1">
    <g
       transform="matrix(9.8453913,0,0,9.8453913,-6317.8231,-6330.6769)"
       id="g30796">
      <g
         transform="matrix(1.0037932,0,0,1.0037932,-2.0276736,-3.0358503)"
         id="g30825">
        <g
           transform="matrix(1.25,0,0,-1.25,701.10009,694.65959)"
           id="g29819">
          <path
             d="m 0,0 -0.139,0 c -1.084,0 -1.684,-1.157 -1.684,-2.584 0,-1.427 0.572,-2.585 1.684,-2.584 l 0.123,0 c 1.112,-10e-4 1.684,1.157 1.684,2.584 0,1.417 -0.575,2.567 -1.644,2.584 L 0,0 z m 0.069,1.771 c 2.514,-0.012 3.904,-1.954 3.904,-4.348 0,-2.401 -1.335,-4.349 -3.928,-4.348 l -0.288,0 c -2.593,-0.001 -3.928,1.947 -3.928,4.348 0,2.401 1.398,4.348 3.928,4.348 l 0.288,0"
             id="path29821"
             style="fill:#00446b;fill-opacity:1;fill-rule:nonzero;stroke:none" />
        </g>
        <g
           transform="matrix(1.25,0,0,-1.25,716.62509,693.85334)"
           id="g29823">
          <path
             d="M 0,0 C 0,0.553 0.449,0.961 0.979,0.961 1.504,0.961 1.953,0.553 1.953,0 1.953,-0.558 1.504,-0.966 0.979,-0.966 0.449,-0.966 0,-0.558 0,0 m 0.979,-0.806 c 0.436,0 0.78,0.342 0.78,0.806 0,0.456 -0.344,0.801 -0.78,0.801 C 0.538,0.801 0.194,0.456 0.194,0 c 0,-0.464 0.344,-0.806 0.785,-0.806 m -0.204,0.248 -0.168,0 0,1.111 0.423,0 c 0.263,0 0.393,-0.097 0.393,-0.316 0,-0.199 -0.125,-0.285 -0.288,-0.306 l 0.316,-0.489 -0.189,0 -0.293,0.481 -0.194,0 0,-0.481 z m 0.202,0.624 c 0.142,0 0.27,0.01 0.27,0.181 0,0.138 -0.125,0.163 -0.242,0.163 l -0.23,0 0,-0.344"
             id="path29825"
             style="fill:#00446b;fill-opacity:1;fill-rule:nonzero;stroke:none" />
        </g>
        <g
           transform="matrix(1.25,0,0,-1.25,645.68259,703.12834)"
           id="g29827">
          <path
             d="m 0,0 0,3.287 3.083,0 0,1.781 -3.083,0 0,1.557 3.231,0 0,1.729 -5.672,0 0,-8.354"
             id="path29829"
             style="fill:#00446b;fill-opacity:1;fill-rule:nonzero;stroke:none" />
        </g>
        <g
           transform="matrix(1.25,0,0,-1.25,657.68009,700.81959)"
           id="g29831">
          <path
             d="m 0,0 -3.53,0 0,1.524 3.082,0 0,1.781 -3.082,0 0,1.473 3.337,0 0,1.729 -5.778,0 0,-8.354 5.971,0"
             id="path29833"
             style="fill:#00446b;fill-opacity:1;fill-rule:nonzero;stroke:none" />
        </g>
        <g
           transform="matrix(1.25,0,0,-1.25,664.97134,697.96084)"
           id="g29835">
          <path
             d="m 0,0 c 0.873,0.31 1.506,0.9 1.534,2.1 0.027,1.175 -1.05,2.123 -2.345,2.123 l -4.671,0 0,-8.357 2.451,0 0,6.626 1.185,0 c 0.627,0 1.029,-0.267 1.02,-0.833 -0.01,-0.673 -0.393,-0.9 -1.02,-0.908 l -1.144,0 2.47,-4.864 2.693,0"
             id="path29837"
             style="fill:#00446b;fill-opacity:1;fill-rule:nonzero;stroke:none" />
        </g>
        <g
           transform="matrix(1.25,0,0,-1.25,674.00009,700.83584)"
           id="g29839">
          <path
             d="m 0,0 0,1.283 -1.612,0 0,1.739 3.754,0 0,-4.39 c -1.018,-0.572 -2.905,-0.69 -3.838,-0.648 -2.636,0.084 -3.929,1.979 -3.929,4.38 0,2.401 1.399,4.348 3.929,4.348 l 0.742,0 c 0.657,0 3.074,-0.277 3.074,-2.779 l -2.226,0 c -0.148,0.891 -0.824,1.09 -1.375,1.069 l -0.124,0 c -1.084,0 -1.683,-1.157 -1.683,-2.584 0,-1.427 0.572,-2.585 1.683,-2.584 C -1.223,-0.176 -0.594,-0.159 0,0"
             id="path29841"
             style="fill:#00446b;fill-opacity:1;fill-rule:nonzero;stroke:none" />
        </g>
        <g
           transform="matrix(1.25,0,0,-1.25,709.08884,695.98459)"
           id="g29843">
          <path
             d="m 0,0 0,-5.72 -2.017,0 0,8.333 3.053,0 2.502,-5.381 0,5.381 2.036,0 0,-8.333 -2.905,0"
             id="path29845"
             style="fill:#00446b;fill-opacity:1;fill-rule:nonzero;stroke:none" />
        </g>
        <g
           transform="matrix(1.25,0,0,-1.25,687.01634,700.71584)"
           id="g29847">
          <path
             d="m 0,0 c -0.049,0.257 -0.067,0.528 -0.067,0.807 l 2.227,0 c 0.032,-0.319 0.054,-0.631 0.286,-0.926 0.199,-0.252 0.559,-0.426 0.977,-0.426 0.62,0 1.122,0.382 1.122,0.853 0,0.405 -0.377,0.716 -0.87,0.829 C 3.159,1.254 2.657,1.377 1.957,1.568 1.257,1.759 0.12,2.353 0.12,3.826 c 0,1.824 1.392,2.661 3.396,2.661 2.13,0 3.233,-0.837 3.233,-2.767 l -2.29,0 c 0,0 -0.016,0.13 -0.016,0.321 0,0.422 -0.429,0.765 -0.959,0.765 -0.53,0 -0.96,-0.343 -0.96,-0.765 C 2.524,3.724 2.715,3.443 3.122,3.33 3.299,3.281 3.961,3.099 5.037,2.786 6.208,2.443 6.961,1.436 6.961,0.391 6.961,-1.091 6.074,-2.292 3.463,-2.293 1.047,-2.293 0.247,-1.297 0,0"
             id="path29849"
             style="fill:#00446b;fill-opacity:1;fill-rule:nonzero;stroke:none" />
        </g>
        <g
           transform="matrix(1.25,0,0,-1.25,681.85384,703.39584)"
           id="g29851">
          <path
             d="m 0,0 c 3.371,-0.015 3.696,1.377 3.704,4.287 l 0,4.26 -2.318,0 0,-4.06 C 1.38,2.827 1.399,1.927 0,1.924 -1.399,1.921 -1.38,2.827 -1.386,4.487 l 0,4.06 -2.318,0 0,-4.26 C -3.696,1.377 -3.371,0.015 0,0"
             id="path29853"
             style="fill:#00446b;fill-opacity:1;fill-rule:nonzero;stroke:none" />
        </g>
        <g
           transform="matrix(1.25,0,0,-1.25,639.96759,692.67084)"
           id="g29855">
          <path
             d="m 0,0 c 0,-2.302 -1.883,-4.167 -4.21,-4.167 l 0,2.083 c 1.164,0 2.104,0.933 2.104,2.084"
             id="path29857"
             style="fill:#00446b;fill-opacity:1;fill-rule:nonzero;stroke:none" />
        </g>
        <g
           transform="matrix(1.25,0,0,-1.25,629.43259,703.08709)"
           id="g29859">
          <path
             d="m 0,0 c 0,2.301 1.891,4.166 4.218,4.166 l 0,-2.083 C 3.054,2.083 2.108,1.151 2.108,0"
             id="path29861"
             style="fill:#00446b;fill-opacity:1;fill-rule:nonzero;stroke:none" />
        </g>
        <g
           transform="matrix(1.25,0,0,-1.25,632.14634,698.50959)"
           id="g29863">
          <path
             d="m 0,0 c -0.04,0.161 -0.062,0.33 -0.062,0.503 0,1.153 0.943,2.088 2.109,2.088 l 0,2.056 c -2.322,0 -4.202,-1.861 -4.202,-4.157 0,-0.165 0.01,-0.329 0.029,-0.49"
             id="path29865"
             style="fill:#00446b;fill-opacity:1;fill-rule:nonzero;stroke:none" />
        </g>
        <g
           transform="matrix(1.25,0,0,-1.25,634.70509,703.09334)"
           id="g29867">
          <path
             d="m 0,0 c 2.322,0 4.207,1.861 4.207,4.157 0,0.179 -0.011,0.349 -0.033,0.522 l -2.122,0 C 2.093,4.518 2.114,4.344 2.114,4.17 2.114,3.017 1.166,2.082 0,2.082"
             id="path29869"
             style="fill:#00446b;fill-opacity:1;fill-rule:nonzero;stroke:none" />
        </g>
      </g>
    </g>
  </g>
</svg>
